<svg xmlns="http://www.w3.org/2000/svg" viewBox="0 0 47.01 46.58"><title>burger</title><g id="Layer_2" data-name="Layer 2"><path d="M7.5,25h35s7.44-.27,2.28-10.74S27.2,2.86,27.2,2.86s-9.41-.39-14.57,3.8S5.24,12.88,4.08,16.71s-2.49,7.41-.72,14.47S12.2,44.77,17.82,46.33s13.87,1.81,19.77-2.68S48,32.45,47.47,26.2" transform="translate(-1.5 -1.77)" fill="none" stroke="#231f20" stroke-miterlimit="10" stroke-width="2"/></g><g id="Layer_3" data-name="Layer 3"><path d="M7.66,17.26l34,.11s7-.36,5.47,13c-1.52,13-24.37,19.76-31.46,15.25-.95-.6-3.5-2.22-3.59-4.7a5.14,5.14,0,0,1,1.56-3.55l24-24" transform="translate(-1.5 -1.77)" fill="none" stroke="#231f20" stroke-miterlimit="10" stroke-width="2"/></g><g id="Layer_4" data-name="Layer 4"><path d="M7.66,32.26l34,.11s6.92-.08,3.76-16.7-30.75-14.25-32.79-9,0,6.64,0,6.64l24,24" transform="translate(-1.5 -1.77)" fill="none" stroke="#231f20" stroke-miterlimit="10" stroke-width="2"/></g></svg>